PathFileType	4	(X/Y/Z)	D:\TRACE\spotREDO_2-26-24\spot_justBody_Motion_3_5-platform.trc
DataRate	CameraRate	NumFrames	NumMarkers	Units	OrigDataRate	OrigDataStartFrame	OrigNumFrames
100.00	100.00	      42	5	mm	100.00	2626	      7000
Frame#	Time	Left_Front			Right_Front			Left_Aft			Right_Aft			Post			
		X1	Y1	Z1	X2	Y2	Z2	X3	Y3	Z3	X4	Y4	Z4	X5	Y5	Z5	

2626	26.250	-702.32355	-22.81315	-580.19769	712.35455	-11.59883	-495.76743	-774.07562	23.86161	637.43207	796.46277	31.12579	641.50110	7.29445	591.26172	-1006.59296	
2627	26.260	-702.53088	-23.15632	-580.31934	712.34235	-11.90501	-495.68484	-774.18182	24.26421	637.40845	796.33777	31.29958	641.34717	7.42864	590.33362	-1006.65887	
2628	26.270	-702.65704	-23.49552	-580.48041	712.26404	-12.13171	-495.82986	-774.29321	24.53378	637.33423	796.06085	31.82832	641.22418	7.17088	589.80896	-1007.15222	
2629	26.280	-702.77100	-23.90879	-580.51416	712.13470	-12.34947	-495.85883	-774.41943	25.00581	637.27063	795.85339	32.35561	641.19446	6.87841	589.29999	-1007.70337	
2630	26.290	-702.83722	-24.32792	-580.50720	711.98877	-12.59955	-495.96057	-774.59851	25.48764	637.05011	795.87238	32.63860	640.90405	6.71279	588.62402	-1008.15784	
2631	26.300	-703.01013	-24.75829	-580.59467	711.84833	-12.96465	-496.07098	-774.69769	25.81364	636.99963	795.69849	33.03799	640.92480	6.67446	587.89648	-1008.59265	
2632	26.310	-703.30377	-25.08051	-580.70245	711.65588	-13.40651	-496.20895	-774.79187	26.09836	636.93256	795.33264	33.26300	640.83459	6.67141	587.42706	-1008.95557	
2633	26.320	-703.50653	-25.37703	-580.81055	711.48163	-13.81018	-496.27005	-774.90778	26.29735	636.80127	795.29681	33.58032	640.81671	6.45341	586.92230	-1009.48218	
2634	26.330	-703.72565	-25.57186	-580.89185	711.37860	-13.95281	-496.30960	-775.17426	26.72890	636.80420	794.93970	34.13379	640.59039	6.10263	586.33313	-1010.14032	
2635	26.340	-703.75562	-25.82174	-580.91736	711.20526	-14.13508	-496.40808	-775.31543	27.17473	636.67786	794.75623	34.47535	640.65167	6.39908	585.62848	-1010.02100	
2636	26.350	-703.82813	-26.21916	-581.11359	711.07092	-14.50838	-496.63168	-775.35510	27.42837	636.58929	794.78052	34.73328	640.61023	6.25689	585.17291	-1010.45148	
2637	26.360	-704.05927	-26.53570	-581.23322	711.01630	-14.69952	-496.65884	-775.56940	27.78703	636.40271	794.76904	35.12826	640.47473	5.77363	584.61707	-1010.99432	
2638	26.370	-704.16669	-26.99976	-581.12445	710.76483	-14.82210	-496.74167	-775.78052	28.09941	636.29095	794.46796	35.53055	640.30237	5.69420	584.11108	-1011.43286	
2639	26.380	-704.26068	-27.32419	-581.25287	710.64423	-15.10152	-496.83820	-776.01953	28.47533	636.19653	794.24780	35.82751	640.24390	5.37585	583.59351	-1012.02814	
2640	26.390	-704.36572	-27.60545	-581.35040	710.44513	-15.40633	-496.77032	-776.18634	28.73021	636.13477	794.10168	35.98030	640.15906	4.92200	583.12518	-1012.44849	
2641	26.400	-704.54370	-27.80329	-581.34222	710.31488	-16.05715	-496.68127	-776.38641	29.04441	636.09039	793.92767	36.16595	640.07428	4.73641	582.58801	-1012.75452	
2642	26.410	-704.78174	-28.10169	-581.42102	710.05426	-16.17478	-496.81351	-776.57397	29.29529	636.00635	793.95349	36.24723	639.95496	4.60136	582.06018	-1013.13300	
2643	26.420	-704.93353	-28.41751	-581.43048	709.93872	-16.34217	-496.94812	-776.68878	29.53695	636.00214	793.59344	36.81495	639.94269	4.37158	581.76276	-1013.35785	
2644	26.430	-705.05713	-28.63140	-581.42975	709.83209	-16.52029	-497.01004	-776.81744	29.70841	635.96100	793.49152	37.05242	639.87073	4.29264	581.34546	-1013.30634	
2645	26.440	-705.19519	-28.81963	-581.45044	709.72534	-16.60940	-497.00974	-776.90009	29.94704	635.87366	793.41321	37.24902	639.75641	3.63100	580.99426	-1013.64471	
2646	26.450	-705.22333	-29.14276	-581.74255	709.58551	-16.90367	-496.97119	-776.97687	30.10806	635.80878	793.27209	37.46607	639.68030	3.18636	580.47095	-1014.13220	
2647	26.460	-705.33435	-29.31581	-581.85370	709.48608	-17.07352	-497.11685	-777.21271	30.46585	635.67914	793.29449	37.73119	639.65735	3.81479	580.10144	-1014.12189	
2648	26.470	-705.44653	-29.57822	-581.95422	709.33160	-17.17950	-497.12827	-777.43317	30.78346	635.60638	793.16107	38.11193	639.63007	3.97683	579.71967	-1014.33240	
2649	26.480	-705.65448	-29.82155	-582.06146	709.17255	-17.37359	-497.26331	-777.55267	31.02907	635.50372	792.99750	38.34676	639.54492	3.79636	579.26672	-1014.72375	
2650	26.490	-705.80463	-30.14016	-581.90356	708.92474	-17.48742	-497.37491	-777.58478	31.25958	635.41486	792.69458	38.54274	639.42719	3.69012	578.92822	-1015.01569	
2651	26.500	-705.90839	-30.29221	-581.90088	708.73505	-17.76661	-497.44586	-777.70007	31.42369	635.33038	792.57275	38.70567	639.36798	3.42422	578.52728	-1015.31116	
2652	26.510	-706.00238	-30.51431	-581.88251	708.68774	-18.23069	-497.33582	-777.83075	31.49148	635.33557	792.45538	38.91417	639.23505	4.25546	578.01123	-1015.67450	
2653	26.520	-706.08862	-30.63173	-581.84717	708.67523	-18.39930	-497.34592	-777.89191	31.74504	635.35297	792.30237	39.22810	639.26709	4.28506	577.60199	-1016.03223	
2654	26.530	-706.23322	-30.80259	-581.83514	708.50177	-18.48764	-497.40332	-778.06055	31.92128	635.25708	792.29199	39.49170	639.20325	3.81685	577.20563	-1016.48236	
2655	26.540	-706.35254	-30.94086	-581.92224	708.41150	-18.62935	-497.52963	-778.11530	32.32803	635.34277	792.29016	39.68283	639.21033	3.51672	576.92517	-1016.72925	
2656	26.550	-706.54053	-31.22233	-581.97083	708.24072	-18.83027	-497.61960	-778.11670	32.55502	635.30444	792.18890	39.78429	639.14288	3.82057	576.46155	-1016.63196	
2657	26.560	-706.64117	-31.48103	-582.05194	708.16882	-18.87111	-497.85956	-778.30096	32.65814	635.04041	791.98224	39.97447	638.96942	3.56106	576.23706	-1016.75732	
2658	26.570	-706.79889	-31.68358	-582.17737	708.14636	-19.03919	-497.84900	-778.46509	33.05253	634.86255	791.74329	40.18446	638.87225	3.45045	575.99652	-1016.99487	
2659	26.580	-706.82794	-31.87920	-582.24121	708.07867	-19.13915	-497.80804	-778.59082	33.36879	634.76318	791.62006	40.53418	638.82050	3.29372	575.62708	-1017.15222	
2660	26.590	-706.68817	-32.10993	-582.48273	708.10767	-19.29013	-497.85974	-778.58813	33.50417	634.74805	791.67896	40.63730	638.79962	3.10699	575.23877	-1017.49225	
2661	26.600	-706.71582	-32.27373	-582.24756	708.10370	-19.50487	-497.89774	-778.63293	33.68859	634.71887	791.65057	40.70828	638.78485	3.12831	574.88568	-1017.71967	
2662	26.610	-706.70184	-32.49547	-582.24030	707.98907	-19.68868	-497.87589	-778.63165	33.77511	634.66071	791.66089	40.89331	638.73010	3.27285	574.48724	-1017.74750	
2663	26.620	-706.73926	-32.73524	-582.25995	707.98663	-19.96672	-497.89233	-778.66577	33.88760	634.58765	791.70996	41.16877	638.66309	2.95685	574.14917	-1018.22803	
2664	26.630	-706.75439	-32.95985	-582.28766	707.97028	-20.30237	-497.89902	-778.71472	34.12652	634.50690	791.81519	41.28638	638.62915	2.90999	573.85443	-1018.62640	
2665	26.640	-706.84393	-33.19339	-582.34521	708.08472	-20.48587	-497.74988	-778.70752	34.29694	634.44690	791.75073	41.56344	638.53754	2.96665	573.39905	-1019.01093	
2666	26.650	-706.82544	-33.34867	-582.46307	708.07434	-20.66374	-497.84012	-778.63965	34.37999	634.42249	791.56824	41.91914	638.47876	3.03234	572.96228	-1019.30579	
2667	26.660	-706.94720	-33.60271	-582.50983	708.11340	-20.80925	-497.84055	-778.50293	34.71401	634.39996	791.66382	42.31867	638.31476	2.91788	572.69568	-1019.48181	
